<svg version="1.1" id="Layer_1" xmlns="http://www.w3.org/2000/svg" xmlns:xlink="http://www.w3.org/1999/xlink" x="0px" y="0px"
	 width="100%" viewBox="0 0 500 500" enable-background="new 0 0 500 500" xml:space="preserve">
<path fill="#FFFFFF" opacity="1.000000" stroke="none" 
	d="
M223.000000,501.000000 
	C148.666687,501.000000 74.833366,501.000000 1.000040,501.000000 
	C1.000026,334.333405 1.000026,167.666779 1.000013,1.000129 
	C167.666565,1.000086 334.333130,1.000086 500.999756,1.000043 
	C500.999847,167.666534 500.999847,334.333069 500.999939,500.999817 
	C408.500000,501.000000 316.000000,501.000000 223.000000,501.000000 
M329.362946,247.150787 
	C333.755829,217.930115 338.148712,188.709442 342.593262,159.145126 
	C339.424713,159.145126 336.954041,158.997589 334.505615,159.168747 
	C316.770508,160.408615 299.040710,161.724121 281.307587,162.992432 
	C270.864655,163.739349 260.416321,164.411346 249.974625,165.174545 
	C232.905121,166.422180 215.842209,167.761322 198.770584,168.978531 
	C183.020935,170.101532 167.260727,171.076096 151.510162,172.187012 
	C134.103516,173.414734 116.711967,174.891312 99.291870,175.867203 
	C95.384804,176.086075 94.365540,177.320175 93.871864,180.978088 
	C91.914406,195.482132 89.545753,209.930328 87.372414,224.405670 
	C85.356941,237.829575 83.396179,251.261688 81.307076,265.395477 
	C95.508194,264.436768 109.061760,263.511993 122.616821,262.609528 
	C135.380981,261.759735 148.146713,260.933441 160.971207,260.920807 
	C156.601089,290.123993 152.230972,319.327148 147.755524,349.234161 
	C234.688950,343.048309 320.918274,336.912537 407.404633,330.758484 
	C411.839722,301.096100 416.222839,271.781189 420.703644,241.813004 
	C413.947479,242.250824 408.177795,242.611176 402.410126,243.001373 
	C391.305023,243.752670 380.201813,244.531616 369.096466,245.279266 
	C355.840332,246.171722 342.582794,247.043320 329.362946,247.150787 
z"/>
<path fill="#3A6F67" opacity="1.000000" stroke="none" 
	d="
M329.325867,247.923920 
	C342.582794,247.043320 355.840332,246.171722 369.096466,245.279266 
	C380.201813,244.531616 391.305023,243.752670 402.410126,243.001373 
	C408.177795,242.611176 413.947479,242.250824 420.703644,241.813004 
	C416.222839,271.781189 411.839722,301.096100 407.404633,330.758484 
	C320.918274,336.912537 234.688950,343.048309 147.755524,349.234161 
	C152.230972,319.327148 156.601089,290.123993 161.308990,260.465942 
	C168.817169,259.664642 176.003204,259.511169 183.154648,258.931305 
	C197.822159,257.742035 212.458694,256.160767 227.131104,255.044708 
	C242.942780,253.841995 258.778748,252.951218 274.608429,251.995850 
	C281.935303,251.553650 289.285919,251.456039 296.601685,250.890427 
	C307.520935,250.046219 318.418854,248.926453 329.325867,247.923920 
M224.940994,318.842560 
	C226.649567,318.197357 228.947403,318.036163 229.952225,316.812866 
	C232.583450,313.609528 235.799347,310.165314 236.533356,306.380920 
	C237.014023,303.902557 233.576538,300.664276 231.857666,297.703888 
	C236.357651,294.795898 238.767776,290.655518 237.716019,286.684387 
	C236.519241,282.165771 232.584442,279.802124 225.702469,279.998993 
	C218.938217,280.192505 212.184692,280.761169 205.110825,281.184082 
	C203.376770,293.053802 201.680817,304.511780 200.055634,315.979797 
	C199.853897,317.403320 200.028091,318.880096 200.028091,321.035187 
	C208.386841,320.315857 216.251556,319.639008 224.940994,318.842560 
M296.244049,301.847595 
	C295.824402,305.721344 295.404785,309.595062 294.894928,314.301636 
	C304.422577,313.518097 313.138611,312.779510 321.858673,312.091827 
	C327.685944,311.632294 328.666412,310.232819 327.075714,304.000214 
	C320.271912,304.385132 313.393036,304.774323 306.332581,305.173798 
	C305.728516,300.345978 304.853668,296.349396 311.349457,296.625183 
	C314.474884,296.757874 317.625366,296.105164 320.770935,295.998871 
	C327.137421,295.783813 327.648102,295.159607 326.283997,288.008545 
	C320.357422,288.356476 314.354553,288.708862 308.487030,289.053345 
	C307.319824,284.117004 307.952484,281.540588 313.171967,281.762726 
	C317.120819,281.930786 321.101624,281.156464 325.076050,280.959198 
	C331.338593,280.648407 332.779297,278.675293 331.109253,272.288544 
	C321.710449,272.890137 312.282898,273.395294 302.884796,274.231476 
	C301.824585,274.325836 300.278564,276.175446 300.065552,277.403290 
	C298.706299,285.239166 297.657501,293.128937 296.244049,301.847595 
M359.711395,270.062012 
	C351.990143,270.743195 344.268921,271.424377 336.362640,272.121918 
	C335.946503,274.837463 335.588226,277.175385 335.147461,280.051544 
	C339.300018,280.051544 342.877686,280.051544 347.198425,280.051544 
	C345.845428,290.491333 344.562744,300.388733 343.185577,311.015137 
	C346.629425,310.548828 349.620605,310.143829 352.727325,309.723175 
	C354.261871,299.388672 355.739471,289.437775 357.273224,279.108490 
	C361.512512,278.561584 365.548584,278.040863 369.658295,277.510651 
	C370.062836,275.071594 370.433411,272.837219 370.896637,270.044312 
	C367.206726,270.044312 363.931458,270.044312 359.711395,270.062012 
M263.976746,286.404510 
	C262.571747,296.423828 261.166779,306.443146 259.729065,316.695923 
	C268.336334,316.079590 275.758423,315.400482 283.196045,315.058075 
	C290.291107,314.731354 290.869476,314.117157 289.393524,306.496857 
	C283.399017,306.801697 277.375610,307.107971 270.590881,307.452972 
	C272.002441,296.918365 273.353546,286.834900 274.793457,276.088654 
	C271.362671,276.547638 268.369446,276.948090 265.330811,277.354614 
	C264.848816,280.311859 264.424133,282.917297 263.976746,286.404510 
M245.057709,292.667023 
	C244.009201,300.946167 242.960693,309.225281 241.911850,317.507141 
	C250.466400,318.360840 251.129913,317.872772 252.108292,310.784363 
	C252.198776,310.128693 252.445267,309.494629 252.537323,308.839020 
	C253.956390,298.731506 255.361877,288.622131 256.801666,278.289673 
	C253.377365,278.289673 250.478958,278.289673 247.396408,278.289673 
	C246.602280,282.993500 245.860947,287.384552 245.057709,292.667023 
M258.007690,271.454712 
	C258.208618,265.422821 253.528671,268.030701 251.269684,268.277069 
	C247.522263,268.685699 248.190582,271.961548 248.531738,275.299347 
	C251.828033,273.726410 256.137360,277.833496 258.007690,271.454712 
z"/>
<path fill="#1F1A1A" opacity="1.000000" stroke="none" 
	d="
M329.344421,247.537354 
	C318.418854,248.926453 307.520935,250.046219 296.601685,250.890427 
	C289.285919,251.456039 281.935303,251.553650 274.608429,251.995850 
	C258.778748,252.951218 242.942780,253.841995 227.131104,255.044708 
	C212.458694,256.160767 197.822159,257.742035 183.154648,258.931305 
	C176.003204,259.511169 168.817169,259.664642 161.279266,260.053955 
	C148.146713,260.933441 135.380981,261.759735 122.616821,262.609528 
	C109.061760,263.511993 95.508194,264.436768 81.307076,265.395477 
	C83.396179,251.261688 85.356941,237.829575 87.372414,224.405670 
	C89.545753,209.930328 91.914406,195.482132 93.871864,180.978088 
	C94.365540,177.320175 95.384804,176.086075 99.291870,175.867203 
	C116.711967,174.891312 134.103516,173.414734 151.510162,172.187012 
	C167.260727,171.076096 183.020935,170.101532 198.770584,168.978531 
	C215.842209,167.761322 232.905121,166.422180 249.974625,165.174545 
	C260.416321,164.411346 270.864655,163.739349 281.307587,162.992432 
	C299.040710,161.724121 316.770508,160.408615 334.505615,159.168747 
	C336.954041,158.997589 339.424713,159.145126 342.593262,159.145126 
	C338.148712,188.709442 333.755829,217.930115 329.344421,247.537354 
M171.834656,195.046570 
	C171.158371,195.773605 170.064819,196.408951 169.881287,197.244263 
	C169.241592,200.155502 168.888489,203.132004 168.477554,206.090805 
	C167.163589,215.551788 165.872543,225.015976 164.510132,234.934067 
	C170.946869,234.480148 176.725739,234.234406 182.466782,233.629517 
	C190.892181,232.741745 198.336624,229.706100 202.967819,222.152817 
	C206.886444,215.761673 208.434616,208.696075 204.798325,201.788849 
	C201.269928,195.086563 194.587891,193.812897 187.634659,194.052246 
	C182.657257,194.223572 177.689667,194.680389 171.834656,195.046570 
M253.397842,213.564987 
	C255.775757,202.359924 252.292572,194.254150 243.784256,191.193069 
	C229.774170,186.152573 213.934616,195.817001 212.073334,210.541321 
	C210.552109,222.575348 218.005859,230.977203 230.147858,230.914932 
	C240.974274,230.859406 249.052383,225.053452 253.397842,213.564987 
M301.974945,206.189728 
	C302.067444,195.745941 298.546051,190.114700 290.373108,187.636597 
	C277.395996,183.701828 263.244141,191.886749 260.257996,205.054108 
	C257.041931,219.235275 266.635803,229.505844 281.071259,227.335388 
	C292.671295,225.591263 298.885651,219.545456 301.974945,206.189728 
M140.148270,197.333099 
	C138.596054,198.567169 136.477966,199.485855 135.585297,201.087509 
	C130.568588,210.088898 125.842415,219.252350 121.027199,228.365845 
	C119.376022,231.490921 117.753967,234.631393 115.830818,238.316238 
	C121.573135,237.780563 127.354088,239.601608 129.192673,232.411301 
	C129.351761,231.789154 130.716507,231.154938 131.568649,231.082230 
	C137.181076,230.603317 142.806519,230.276917 148.484268,229.896988 
	C149.175430,232.086227 149.755737,233.924301 150.442245,236.098785 
	C153.427765,235.792953 156.301254,235.498596 159.578232,235.162903 
	C156.522659,223.816666 153.643967,213.088333 150.735962,202.367950 
	C150.262314,200.621811 149.659027,198.910828 149.012238,196.854858 
	C146.266495,196.992584 143.631836,197.124741 140.148270,197.333099 
z"/>
<path fill="#1F2020" opacity="1.000000" stroke="none" 
	d="
M224.528641,318.902374 
	C216.251556,319.639008 208.386841,320.315857 200.028091,321.035187 
	C200.028091,318.880096 199.853897,317.403320 200.055634,315.979797 
	C201.680817,304.511780 203.376770,293.053802 205.110825,281.184082 
	C212.184692,280.761169 218.938217,280.192505 225.702469,279.998993 
	C232.584442,279.802124 236.519241,282.165771 237.716019,286.684387 
	C238.767776,290.655518 236.357651,294.795898 231.857666,297.703888 
	C233.576538,300.664276 237.014023,303.902557 236.533356,306.380920 
	C235.799347,310.165314 232.583450,313.609528 229.952225,316.812866 
	C228.947403,318.036163 226.649567,318.197357 224.528641,318.902374 
M224.778625,310.445618 
	C227.467316,308.377197 228.633423,304.800079 225.395020,303.817810 
	C221.437988,302.617584 216.580643,303.338196 212.431625,304.434967 
	C211.128906,304.779327 210.855728,309.018463 209.970230,311.940491 
	C213.710083,311.940491 216.493042,312.068726 219.256424,311.891602 
	C220.869873,311.788177 222.452042,311.196564 224.778625,310.445618 
M227.923370,291.255615 
	C226.568817,288.291046 218.921951,285.986633 215.234268,288.439484 
	C213.389221,289.666718 213.235397,293.436584 212.146225,296.542450 
	C224.782425,295.952728 224.782425,295.952728 227.923370,291.255615 
z"/>
<path fill="#1F2120" opacity="1.000000" stroke="none" 
	d="
M296.375244,301.424255 
	C297.657501,293.128937 298.706299,285.239166 300.065552,277.403290 
	C300.278564,276.175446 301.824585,274.325836 302.884796,274.231476 
	C312.282898,273.395294 321.710449,272.890137 331.109253,272.288544 
	C332.779297,278.675293 331.338593,280.648407 325.076050,280.959198 
	C321.101624,281.156464 317.120819,281.930786 313.171967,281.762726 
	C307.952484,281.540588 307.319824,284.117004 308.487030,289.053345 
	C314.354553,288.708862 320.357422,288.356476 326.283997,288.008545 
	C327.648102,295.159607 327.137421,295.783813 320.770935,295.998871 
	C317.625366,296.105164 314.474884,296.757874 311.349457,296.625183 
	C304.853668,296.349396 305.728516,300.345978 306.332581,305.173798 
	C313.393036,304.774323 320.271912,304.385132 327.075714,304.000214 
	C328.666412,310.232819 327.685944,311.632294 321.858673,312.091827 
	C313.138611,312.779510 304.422577,313.518097 294.894928,314.301636 
	C295.404785,309.595062 295.824402,305.721344 296.375244,301.424255 
z"/>
<path fill="#1F2120" opacity="1.000000" stroke="none" 
	d="
M360.183807,270.053162 
	C363.931458,270.044312 367.206726,270.044312 370.896637,270.044312 
	C370.433411,272.837219 370.062836,275.071594 369.658295,277.510651 
	C365.548584,278.040863 361.512512,278.561584 357.273224,279.108490 
	C355.739471,289.437775 354.261871,299.388672 352.727325,309.723175 
	C349.620605,310.143829 346.629425,310.548828 343.185577,311.015137 
	C344.562744,300.388733 345.845428,290.491333 347.198425,280.051544 
	C342.877686,280.051544 339.300018,280.051544 335.147461,280.051544 
	C335.588226,277.175385 335.946503,274.837463 336.362640,272.121918 
	C344.268921,271.424377 351.990143,270.743195 360.183807,270.053162 
z"/>
<path fill="#1F2121" opacity="1.000000" stroke="none" 
	d="
M263.988098,285.963623 
	C264.424133,282.917297 264.848816,280.311859 265.330811,277.354614 
	C268.369446,276.948090 271.362671,276.547638 274.793457,276.088654 
	C273.353546,286.834900 272.002441,296.918365 270.590881,307.452972 
	C277.375610,307.107971 283.399017,306.801697 289.393524,306.496857 
	C290.869476,314.117157 290.291107,314.731354 283.196045,315.058075 
	C275.758423,315.400482 268.336334,316.079590 259.729065,316.695923 
	C261.166779,306.443146 262.571747,296.423828 263.988098,285.963623 
z"/>
<path fill="#1F2120" opacity="1.000000" stroke="none" 
	d="
M245.088654,292.221313 
	C245.860947,287.384552 246.602280,282.993500 247.396408,278.289673 
	C250.478958,278.289673 253.377365,278.289673 256.801666,278.289673 
	C255.361877,288.622131 253.956390,298.731506 252.537323,308.839020 
	C252.445267,309.494629 252.198776,310.128693 252.108292,310.784363 
	C251.129913,317.872772 250.466400,318.360840 241.911850,317.507141 
	C242.960693,309.225281 244.009201,300.946167 245.088654,292.221313 
z"/>
<path fill="#1F2121" opacity="1.000000" stroke="none" 
	d="
M257.989380,271.897278 
	C256.137360,277.833496 251.828033,273.726410 248.531738,275.299347 
	C248.190582,271.961548 247.522263,268.685699 251.269684,268.277069 
	C253.528671,268.030701 258.208618,265.422821 257.989380,271.897278 
z"/>
<path fill="#EEF0F6" opacity="1.000000" stroke="none" 
	d="
M172.276184,195.028198 
	C177.689667,194.680389 182.657257,194.223572 187.634659,194.052246 
	C194.587891,193.812897 201.269928,195.086563 204.798325,201.788849 
	C208.434616,208.696075 206.886444,215.761673 202.967819,222.152817 
	C198.336624,229.706100 190.892181,232.741745 182.466782,233.629517 
	C176.725739,234.234406 170.946869,234.480148 164.510132,234.934067 
	C165.872543,225.015976 167.163589,215.551788 168.477554,206.090805 
	C168.888489,203.132004 169.241592,200.155502 169.881287,197.244263 
	C170.064819,196.408951 171.158371,195.773605 172.276184,195.028198 
M179.138657,225.727127 
	C190.364716,224.337906 194.723251,221.299881 196.371643,213.715225 
	C197.791321,207.182938 194.731262,202.801941 188.086105,202.393143 
	C184.991806,202.202789 181.851425,202.761353 178.487930,202.997559 
	C177.542969,210.045853 176.563095,216.768768 175.859146,223.520432 
	C175.789536,224.188217 177.407166,225.031906 179.138657,225.727127 
z"/>
<path fill="#EEF0F6" opacity="1.000000" stroke="none" 
	d="
M253.286270,213.964966 
	C249.052383,225.053452 240.974274,230.859406 230.147858,230.914932 
	C218.005859,230.977203 210.552109,222.575348 212.073334,210.541321 
	C213.934616,195.817001 229.774170,186.152573 243.784256,191.193069 
	C252.292572,194.254150 255.775757,202.359924 253.286270,213.964966 
M228.719376,199.966293 
	C226.565277,202.794998 223.612640,205.327560 222.430008,208.516525 
	C220.238159,214.426987 222.988586,220.302261 227.713898,221.898117 
	C232.480698,223.507996 238.407303,221.594040 241.532578,217.435410 
	C244.746353,213.159027 245.214859,205.729462 242.509857,201.937637 
	C239.938599,198.333221 235.870178,197.626129 228.719376,199.966293 
z"/>
<path fill="#EFF1F6" opacity="1.000000" stroke="none" 
	d="
M301.946808,206.621552 
	C298.885651,219.545456 292.671295,225.591263 281.071259,227.335388 
	C266.635803,229.505844 257.041931,219.235275 260.257996,205.054108 
	C263.244141,191.886749 277.395996,183.701828 290.373108,187.636597 
	C298.546051,190.114700 302.067444,195.745941 301.946808,206.621552 
M289.662323,197.928268 
	C284.358124,194.010040 278.484283,194.250641 273.891388,198.574249 
	C269.647278,202.569534 268.005920,210.746628 271.199127,215.004730 
	C272.619965,216.899368 275.297150,218.472015 277.646851,218.921387 
	C282.604279,219.869461 286.911530,217.903641 289.647308,213.588120 
	C292.696533,208.778168 293.219513,203.670364 289.662323,197.928268 
z"/>
<path fill="#EEF0F6" opacity="1.000000" stroke="none" 
	d="
M140.572723,197.294998 
	C143.631836,197.124741 146.266495,196.992584 149.012238,196.854858 
	C149.659027,198.910828 150.262314,200.621811 150.735962,202.367950 
	C153.643967,213.088333 156.522659,223.816666 159.578232,235.162903 
	C156.301254,235.498596 153.427765,235.792953 150.442245,236.098785 
	C149.755737,233.924301 149.175430,232.086227 148.484268,229.896988 
	C142.806519,230.276917 137.181076,230.603317 131.568649,231.082230 
	C130.716507,231.154938 129.351761,231.789154 129.192673,232.411301 
	C127.354088,239.601608 121.573135,237.780563 115.830818,238.316238 
	C117.753967,234.631393 119.376022,231.490921 121.027199,228.365845 
	C125.842415,219.252350 130.568588,210.088898 135.585297,201.087509 
	C136.477966,199.485855 138.596054,198.567169 140.572723,197.294998 
M139.414612,223.093430 
	C141.700439,222.986359 143.986267,222.879303 146.802704,222.747375 
	C145.424789,217.265671 144.161575,212.240265 142.647491,206.216904 
	C139.531845,212.262451 136.864288,217.438507 133.924118,223.143570 
	C135.963333,223.143570 137.225754,223.143570 139.414612,223.093430 
z"/>
<path fill="#396C64" opacity="1.000000" stroke="none" 
	d="
M224.413452,310.635132 
	C222.452042,311.196564 220.869873,311.788177 219.256424,311.891602 
	C216.493042,312.068726 213.710083,311.940491 209.970230,311.940491 
	C210.855728,309.018463 211.128906,304.779327 212.431625,304.434967 
	C216.580643,303.338196 221.437988,302.617584 225.395020,303.817810 
	C228.633423,304.800079 227.467316,308.377197 224.413452,310.635132 
z"/>
<path fill="#396C64" opacity="1.000000" stroke="none" 
	d="
M227.863800,291.652710 
	C224.782425,295.952728 224.782425,295.952728 212.146225,296.542450 
	C213.235397,293.436584 213.389221,289.666718 215.234268,288.439484 
	C218.921951,285.986633 226.568817,288.291046 227.863800,291.652710 
z"/>
<path fill="#242020" opacity="1.000000" stroke="none" 
	d="
M178.690170,225.760544 
	C177.407166,225.031906 175.789536,224.188217 175.859146,223.520432 
	C176.563095,216.768768 177.542969,210.045853 178.487930,202.997559 
	C181.851425,202.761353 184.991806,202.202789 188.086105,202.393143 
	C194.731262,202.801941 197.791321,207.182938 196.371643,213.715225 
	C194.723251,221.299881 190.364716,224.337906 178.690170,225.760544 
z"/>
<path fill="#221D1D" opacity="1.000000" stroke="none" 
	d="
M229.064728,199.813599 
	C235.870178,197.626129 239.938599,198.333221 242.509857,201.937637 
	C245.214859,205.729462 244.746353,213.159027 241.532578,217.435410 
	C238.407303,221.594040 232.480698,223.507996 227.713898,221.898117 
	C222.988586,220.302261 220.238159,214.426987 222.430008,208.516525 
	C223.612640,205.327560 226.565277,202.794998 229.064728,199.813599 
z"/>
<path fill="#221D1D" opacity="1.000000" stroke="none" 
	d="
M289.900970,198.240875 
	C293.219513,203.670364 292.696533,208.778168 289.647308,213.588120 
	C286.911530,217.903641 282.604279,219.869461 277.646851,218.921387 
	C275.297150,218.472015 272.619965,216.899368 271.199127,215.004730 
	C268.005920,210.746628 269.647278,202.569534 273.891388,198.574249 
	C278.484283,194.250641 284.358124,194.010040 289.900970,198.240875 
z"/>
<path fill="#292525" opacity="1.000000" stroke="none" 
	d="
M138.951401,223.118500 
	C137.225754,223.143570 135.963333,223.143570 133.924118,223.143570 
	C136.864288,217.438507 139.531845,212.262451 142.647491,206.216904 
	C144.161575,212.240265 145.424789,217.265671 146.802704,222.747375 
	C143.986267,222.879303 141.700439,222.986359 138.951401,223.118500 
z"/>
</svg>